<?xml version="1.0" standalone="no"?>
 <!DOCTYPE svg PUBLIC "-//W3C//DTD SVG 1.1//EN" 
 "http://www.w3.org/Graphics/SVG/1.1/DTD/svg11.dtd"> 
<svg
  xmlns:svg="http://www.w3.org/2000/svg"
  xmlns="http://www.w3.org/2000/svg"
  xmlns:xlink="http://www.w3.org/1999/xlink"
  version="1.1"
  width="13.464540cm" height="5.707380cm" viewBox="0 0 134645400 57073800">
<title>SVG Picture created as FinalCircuitForFinalProject-Edge_Cuts.svg date 2022/05/13 13:54:50 </title>
  <desc>Picture generated by PCBNEW </desc>
<g style="fill:#000000; fill-opacity:1.000000;stroke:#000000; stroke-opacity:1.000000;
stroke-linecap:round; stroke-linejoin:round;"
 transform="translate(0 0) scale(1 1)">
</g>
<g style="fill:#000000; fill-opacity:0.0; 
stroke:#000000; stroke-width:0.000000; stroke-opacity:1; 
stroke-linecap:round; stroke-linejoin:round;">
</g>
<g style="fill:#000000; fill-opacity:0.0; 
stroke:#000000; stroke-width:50000.000000; stroke-opacity:1; 
stroke-linecap:round; stroke-linejoin:round;">
<circle cx="19125000.000000" cy="49027944.000000" r="1697056.000000" /> 
<circle cx="19325000.000000" cy="8127944.000000" r="1697056.000000" /> 
<path d="M25000 25000
L24225000 25000
" />
<path d="M24225000 25000
L24225000 57055000
" />
<path d="M24225000 57055000
L25000 57055000
" />
<path d="M25000 57055000
L25000 25000
" />
<circle cx="56825000.000000" cy="49395000.000000" r="1697056.000000" /> 
<circle cx="38425000.000000" cy="49395000.000000" r="1697056.000000" /> 
<circle cx="56825000.000000" cy="18695000.000000" r="1697056.000000" /> 
<path d="M24225000 14595000
L42625000 14595000
" />
<path d="M42625000 14595000
L42625000 57055000
" />
<path d="M42625000 57055000
L24225000 57055000
" />
<path d="M24225000 57055000
L24225000 14595000
" />
<circle cx="38425000.000000" cy="18695000.000000" r="1697056.000000" /> 
<path d="M42625000 14595000
L61025000 14595000
" />
<path d="M61025000 14595000
L61025000 57055000
" />
<path d="M61025000 57055000
L42625000 57055000
" />
<path d="M42625000 57055000
L42625000 14595000
" />
<circle cx="93625000.000000" cy="49395000.000000" r="1697056.000000" /> 
<circle cx="75225000.000000" cy="49395000.000000" r="1697056.000000" /> 
<circle cx="93625000.000000" cy="18695000.000000" r="1697056.000000" /> 
<path d="M61025000 14595000
L79425000 14595000
" />
<path d="M79425000 14595000
L79425000 57055000
" />
<path d="M79425000 57055000
L61025000 57055000
" />
<path d="M61025000 57055000
L61025000 14595000
" />
<circle cx="75225000.000000" cy="18695000.000000" r="1697056.000000" /> 
<path d="M79425000 14595000
L97825000 14595000
" />
<path d="M97825000 14595000
L97825000 57055000
" />
<path d="M97825000 57055000
L79425000 57055000
" />
<path d="M79425000 57055000
L79425000 14595000
" />
<circle cx="112025000.000000" cy="49395000.000000" r="1697056.000000" /> 
<circle cx="112025000.000000" cy="18695000.000000" r="1697056.000000" /> 
<path d="M97825000 14595000
L116225000 14595000
" />
<path d="M116225000 14595000
L116225000 57055000
" />
<path d="M116225000 57055000
L97825000 57055000
" />
<path d="M97825000 57055000
L97825000 14595000
" />
<circle cx="130425000.000000" cy="49395000.000000" r="1697056.000000" /> 
<circle cx="130425000.000000" cy="18695000.000000" r="1697056.000000" /> 
<path d="M116225000 14595000
L134625000 14595000
" />
<path d="M134625000 14595000
L134625000 57055000
" />
<path d="M134625000 57055000
L116225000 57055000
" />
<path d="M116225000 57055000
L116225000 14595000
" />
<g >
</g>
<g >
</g>
<g >
</g>
<g >
</g>
<g >
</g>
<g >
</g>
<g >
</g>
<g >
</g>
<g >
</g>
<g >
</g>
<g >
</g>
<g >
</g>
<g >
</g>
<g >
</g>
<g >
</g>
<g >
</g>
<g >
</g>
<g >
</g>
<g >
</g>
<g >
</g>
<g >
</g>
<g >
</g>
<g >
</g>
<g >
</g>
<g >
</g>
<g >
</g>
</g> 
</svg>
